<?xml version="1.0" encoding="UTF-8" standalone="no"?>
<svg
   version="1.0"
   width="272.66345pt"
   height="110.86797pt"
   viewBox="0 0 272.66345 110.86797"
   preserveAspectRatio="xMidYMid"
   id="svg3"
   sodipodi:docname="signature.svg"
   inkscape:version="1.3.2 (091e20e, 2023-11-25, custom)"
   xmlns:inkscape="http://www.inkscape.org/namespaces/inkscape"
   xmlns:sodipodi="http://sodipodi.sourceforge.net/DTD/sodipodi-0.dtd"
   xmlns="http://www.w3.org/2000/svg"
   xmlns:svg="http://www.w3.org/2000/svg">
  <defs
     id="defs3" />
  <sodipodi:namedview
     id="namedview3"
     pagecolor="#505050"
     bordercolor="#ffffff"
     borderopacity="1"
     inkscape:showpageshadow="0"
     inkscape:pageopacity="0"
     inkscape:pagecheckerboard="1"
     inkscape:deskcolor="#505050"
     inkscape:document-units="pt"
     inkscape:zoom="3.1223404"
     inkscape:cx="177.75128"
     inkscape:cy="74.303237"
     inkscape:window-width="1920"
     inkscape:window-height="1046"
     inkscape:window-x="-11"
     inkscape:window-y="-11"
     inkscape:window-maximized="1"
     inkscape:current-layer="svg3" />
  <g
     id="g3"
     transform="translate(-7.9704523)"
     style="fill:#ffffff;fill-opacity:1">
    <path
       d="m 169.2,16.76771 c -10.6,16.2 -34.1,53.4 -36.2,57.4 -2.7,5 0.8,3.1 8.3,-4.4 8,-8 15.2,-12.6 22.1,-14.2 2.4,-0.5 2.8,-0.3 2.3,1.2 -2.8,8.6 -3.1,10.2 -1.8,11.7 1.9,2.3 7,2 14.8,-0.9 3.7,-1.3 6.7,-2.3 6.8,-2.2 0,0.1 0.5,1.1 1.1,2.2 1.7,3.1 7.5,3.1 12.9,0.2 l 4.4,-2.5 0.3,2.2 c 0.4,2.9 6.5,3.3 14.4,0.8 6,-1.9 6.1,-1.9 5.7,-0.1 -0.9,3.2 2.3,2.2 12,-3.6 11.4,-6.9 12.1,-7 9.1,-1.3 -2.7,5.3 -0.4,5.8 7.3,1.8 8.6,-4.5 8.2,-4.4 7.7,-2.3 -0.3,1 0.2,2.7 1,3.8 1.3,1.7 2.5,2 9.6,1.9 5.1,-0.1 8.6,-0.6 9.3,-1.4 1,-1 -0.1,-1.1 -5.3,-0.6 -8.1,0.9 -12.5,-0.5 -11.6,-3.4 0.3,-1.1 0.9,-2.9 1.2,-4 0.9,-2.9 -1.5,-2.6 -8.6,1 -3.3,1.7 -6.2,3 -6.4,3 -0.3,0 0,-1.4 0.6,-3 2.4,-6.9 -0.5,-7.3 -10.5,-1.4 -3.2,1.9 -6.1,3.4 -6.3,3.4 -0.3,0 0.4,-1.2 1.5,-2.6 1.1,-1.5 1.8,-3 1.5,-3.5 -1.2,-1.9 -3.4,-0.7 -6.5,3.6 -2.8,3.9 -4.1,4.8 -9.9,6.5 -8.6,2.5 -14,2.7 -14,0.3 0,-1 2.6,-4.1 5.7,-7 3.1,-2.9 5.3,-5.6 4.9,-6 -0.4,-0.4 -1.3,-0.3 -2,0.2 -0.7,0.6 -4.4,3.4 -8.2,6.2 -3.8,2.9 -8.9,6 -11.3,7 -4.1,1.6 -4.4,1.6 -5.7,-0.1 -3.4,-4.7 3.9,-9.8 14.9,-10.4 5.2,-0.3 6.7,-0.8 6.7,-1.9 0,-1.3 -1.2,-1.5 -7.2,-1.1 -8.3,0.5 -15.3,3.5 -17,7.2 -0.5,1.3 -2.1,2.9 -3.4,3.5 -4,1.8 -14.6,4.2 -16,3.7 -1.9,-0.7 -1.8,-3.8 0.2,-8 0.9,-1.9 1.4,-4.1 1.1,-5 -1.3,-3.5 -12,-1.1 -19.7,4.4 -1.5,1.1 -3.1,2 -3.4,2 -0.8,0 -0.7,-0.2 20.1,-31.8 9.5,-14.5 17.3,-27 17.3,-27.8 0,-4.1 -3.8,0.2 -13.8,15.3 z"
       id="path1"
       style="fill:#ffffff;stroke:none;stroke-width:0.1;fill-opacity:1" />
    <path
       d="m 55.172499,13.36771 c -0.324041,0.7 -4.212539,2 -8.749121,3 -8.641107,1.7 -21.170712,6.4 -21.170712,7.8 0,1.3 0.648083,1.1 5.400692,-1.1 4.104526,-1.9 18.254339,-5.5 19.010435,-4.8 0.756097,0.7 -18.254338,24.3 -20.198587,25 -1.188152,0.4 -1.728221,1.3 -1.40418,2.2 0.324042,0.8 -2.160277,5.3 -5.724733,10.3 -7.236927,10 -14.3658407,20.8 -14.3658407,21.7 0,2.6 3.5644567,-1.4 12.5296047,-13.9 l 10.369329,-14.4 5.400692,5.8 c 8.209051,9 17.498241,15.1 23.006947,15.1 3.132401,0 1.512194,-1.8 -3.240415,-3.4 -4.752609,-1.7 -15.121937,-10.3 -19.874546,-16.4 l -2.052263,-2.7 h 11.557481 c 12.96166,-0.1 19.874546,-1.8 27.111473,-6.6 4.752608,-3.2 9.721245,-11.3 9.721245,-15.9 0,-6.3 -6.588844,-10.1 -17.822283,-10.4 -5.724734,-0.1 -7.668983,-0.4 -7.344941,-1.4 0.324041,-0.6 0.108014,-1.2 -0.540069,-1.2 -0.540069,0 -1.296166,0.6 -1.620208,1.3 z m 20.630643,6.4 c 3.672471,2.5 4.21254,6.1 1.40418,11.1 -2.916374,5.3 -9.181176,10 -15.77002,11.7 -7.0209,1.8 -18.57838,2.7 -22.898934,1.8 l -3.348429,-0.8 9.721246,-13.4 9.829259,-13.3 8.965148,0.4 c 6.912886,0.3 9.82926,0.9 12.09755,2.5 z"
       id="path2"
       style="fill:#ffffff;stroke:none;stroke-width:0.10393;fill-opacity:1" />
    <path
       d="m 110.9,28.06771 -7.1,9 h -5.9 c -5.2,0 -5.9,0.2 -5.9,2 0,1.8 0.5,1.9 4.5,1.3 2.5,-0.3 4.5,-0.3 4.5,0.1 0,0.4 -2.7,5.1 -6.1,10.5 l -6.1,9.8 -8.7,2.8 c -9.4,2.9 -21.1,4.5 -21.1,2.7 0,-2.1 5.5,-7.5 9.5,-9.3 5.4,-2.5 7.5,-2.5 6.8,0.1 -0.7,2.7 3.2,2.8 4.7,0.1 1.5,-2.9 1.3,-3.9 -1.2,-5.2 -1.6,-0.9 -3.4,-0.9 -7.6,0.1 -4.4,1 -6.5,2.2 -10.4,6.1 -5,5 -6.1,8.6 -3.3,10.9 2.4,2 13,0.6 21.9,-2.8 4.4,-1.7 8.1,-3 8.3,-2.9 0.1,0.2 -0.3,1.9 -0.9,3.9 -1.4,4.7 -0.5,6.8 2.7,6.8 2.7,0 11.8,-5.4 15,-9 4.7,-5.2 2.7,-0.7 -6.2,13.7 -16.6,27.3 -18.4,30.6 -17.4,31.6 1.5,1.5 2.6,0.3 10.7,-13.1 4.2,-7 10.2,-16.1 13.1,-20.3 l 5.5,-7.7 5.7,0.5 c 4.8,0.5 6.5,0.1 10.6,-2 5.8,-2.9 9.1,-6.1 10,-9.8 0.5,-2.1 0.1,-3.1 -2.2,-4.9 -3.6,-2.8 -8.2,-2.2 -14,2 -2.4,1.6 -4.3,2.7 -4.3,2.5 0,-0.3 1.4,-2.7 3,-5.3 1.7,-2.7 3,-5.7 3,-6.6 0,-3.4 -2.7,-1.4 -6.5,4.9 -4,6.6 -9.9,12 -19.9,18.4 -5.9,3.7 -6.6,3.8 -6.6,1.1 0,-2.9 3.8,-10.1 10.9,-20.7 l 6,-9 16.3,-1.2 c 8.9,-0.7 16.7,-1.6 17.3,-1.9 0.5,-0.4 -5.9,-0.9 -14.4,-1.2 l -15.3,-0.5 5.6,-7.3 c 5.2,-6.5 6.2,-9.2 3.5,-9.2 -0.5,0 -4.1,4 -8,9 z m 21.6,27.4 c 1.8,1.3 1.8,1.5 0.2,4 -2.8,4.2 -9.2,7.8 -14.7,8.4 -4,0.4 -5,0.2 -5,-1 0,-2 8.2,-9.6 12.3,-11.3 4.1,-1.8 4.9,-1.8 7.2,-0.1 z"
       id="path3"
       style="fill:#ffffff;stroke:none;stroke-width:0.1;fill-opacity:1" />
  </g>
</svg>
