<?xml version="1.0" encoding="UTF-8" standalone="no"?>
<!-- Uploaded to: SVG Repo, www.svgrepo.com, Generator: SVG Repo Mixer Tools -->

<svg
   width="800"
   height="230.47522"
   viewBox="0 -182 512 147.50414"
   version="1.1"
   id="svg1"
   sodipodi:docname="azure.svg"
   inkscape:version="1.3.2 (091e20e, 2023-11-25, custom)"
   xmlns:inkscape="http://www.inkscape.org/namespaces/inkscape"
   xmlns:sodipodi="http://sodipodi.sourceforge.net/DTD/sodipodi-0.dtd"
   xmlns="http://www.w3.org/2000/svg"
   xmlns:svg="http://www.w3.org/2000/svg"
   xmlns:rdf="http://www.w3.org/1999/02/22-rdf-syntax-ns#"
   xmlns:cc="http://creativecommons.org/ns#"
   xmlns:dc="http://purl.org/dc/elements/1.1/">
  <defs
     id="defs1" />
  <sodipodi:namedview
     id="namedview1"
     pagecolor="#505050"
     bordercolor="#ffffff"
     borderopacity="1"
     inkscape:showpageshadow="0"
     inkscape:pageopacity="0"
     inkscape:pagecheckerboard="1"
     inkscape:deskcolor="#505050"
     inkscape:zoom="1.01375"
     inkscape:cx="399.50678"
     inkscape:cy="115.90629"
     inkscape:window-width="1920"
     inkscape:window-height="1046"
     inkscape:window-x="-11"
     inkscape:window-y="-11"
     inkscape:window-maximized="1"
     inkscape:current-layer="svg1" />
  <title
     id="title1">path21</title>
  <g
     stroke="none"
     stroke-width="1"
     fill="none"
     fill-rule="evenodd"
     id="g1"
     transform="translate(4.038645e-6,-181.99995)">
    <path
       d="m 88.100435,139.62683 c 24.466605,-4.32208 44.674635,-7.8986 44.906725,-7.94782 l 0.42199,-0.0895 -23.09889,-27.47541 C 97.625879,89.002635 87.23138,76.580109 87.23138,76.5085 c 0,-0.135579 23.85156,-65.817611 23.98564,-66.051449 0.0448,-0.07796 16.27654,27.945637 39.34673,67.931221 21.59873,37.435218 39.40584,68.300688 39.57135,68.589928 l 0.30094,0.52589 -73.41018,-0.009 -73.41017,-0.009 44.484745,-7.85833 z m 281.519455,-6.64477 c -11.17447,-0.71644 -17.67359,-7.07943 -19.39581,-18.98953 -0.45814,-3.16828 -0.45989,-3.25049 -0.50677,-23.818907 l -0.0454,-19.90679 h 4.94553 4.94552 l 0.0389,19.254996 c 0.0351,17.353991 0.0571,19.388721 0.22304,20.609531 0.67335,4.95451 2.01389,8.28632 4.29614,10.67783 1.82654,1.91396 3.96478,3.03464 6.92468,3.6293 1.39641,0.28054 5.36886,0.2811 6.64199,0.001 3.00076,-0.66037 5.40584,-1.9662 7.52749,-4.08704 2.41823,-2.41732 4.20719,-5.84699 5.0728,-9.72527 l 0.29174,-1.30712 0.0325,-19.417947 0.0325,-19.417943 h 5.04906 5.04908 v 30.52555 30.52555 h -4.99706 -4.99707 v -4.84316 c 0,-3.29078 -0.0361,-4.83116 -0.11248,-4.80568 -0.0618,0.0206 -0.31849,0.41323 -0.57031,0.87248 -1.72201,3.14051 -4.59107,6.0125 -7.7349,7.74277 -3.76842,2.07404 -7.54765,2.81152 -12.7112,2.48045 z m 113.42181,-0.0493 c -3.9446,-0.2965 -8.09804,-1.65267 -11.49281,-3.75258 -7.1551,-4.42597 -11.38874,-11.7214 -12.62834,-21.76122 -0.42896,-3.47416 -0.48051,-8.140838 -0.12256,-11.092925 0.7998,-6.596236 3.39182,-13.071656 7.08286,-17.69452 0.94622,-1.185091 3.09278,-3.331653 4.27783,-4.277807 3.20011,-2.555025 6.94328,-4.341705 10.9175,-5.211119 2.31557,-0.506561 6.39333,-0.744404 8.8535,-0.5164 6.18012,0.572775 11.84427,3.482586 15.69405,8.062408 3.91132,4.653046 6.0612,11.15489 6.33574,19.16107 0.043,1.254695 0.0535,3.454491 0.0232,4.888433 l -0.055,2.60716 -21.6449,0.0274 -21.64489,0.0274 v 0.9659 c 0,2.94044 0.71487,6.2895 1.95073,9.13893 1.06574,2.4572 2.90028,5.14041 4.40234,6.43888 3.07983,2.66242 6.84914,4.25602 10.97371,4.63953 1.52934,0.14219 5.42689,-0.008 7.1697,-0.27529 4.97235,-0.76415 9.69967,-2.71443 13.51727,-5.5766 0.44915,-0.33675 0.87898,-0.65137 0.95518,-0.69914 0.1115,-0.0699 0.13785,0.80989 0.13503,4.50822 l -0.003,4.59509 -1.02288,0.63263 c -4.31865,2.67098 -9.26611,4.38605 -14.50445,5.02807 -1.56328,0.19159 -7.29972,0.27694 -9.16925,0.13642 z m 18.83748,-38.75538 c 0,-4.92542 -2.07564,-10.396951 -5.01291,-13.21436 -2.0962,-2.010674 -4.63023,-3.239464 -7.6427,-3.706056 -1.42521,-0.220749 -4.42897,-0.135729 -5.93158,0.167889 -3.17645,0.64184 -5.8038,2.038269 -8.09537,4.302672 -2.41174,2.383142 -4.21993,5.277669 -5.35709,8.575579 -0.40892,1.185892 -0.88719,3.132836 -1.03564,4.21582 l -0.0707,0.516003 h 16.57301 16.57302 z m -293.60907,37.22206 c 0.0254,-0.0747 7.37545,-19.38383 16.33356,-42.909213 l 16.28747,-42.774074 h 5.23325 5.23324 l 0.43421,1.113477 c 1.32688,3.402689 32.60636,84.61285 32.60636,84.65504 0,0.0278 -2.50532,0.0497 -5.56738,0.0497 l -5.56739,-0.001 -4.50822,-12.00277 -4.50822,-12.00276 -18.1522,-2.2e-4 -18.1522,-2.1e-4 -0.15774,0.40736 c -0.0868,0.22406 -2.01288,5.62492 -4.28028,12.00193 l -4.12254,11.59453 -5.579,0.002 c -4.41603,0.001 -5.5694,-0.0264 -5.53292,-0.13389 z m 52.66361,-33.031518 c 0,-0.01901 -3.03386,-8.243819 -6.74191,-18.27731 -6.93712,-18.770929 -7.32519,-19.900331 -7.87328,-22.913888 -0.25701,-1.413112 -0.38706,-1.452381 -0.53961,-0.162947 -0.10904,0.921674 -0.58186,2.984042 -0.94637,4.128013 -0.18087,0.567601 -3.30481,9.141648 -6.94209,19.053435 -3.63728,9.911787 -6.61324,18.06325 -6.61324,18.11436 0,0.05111 6.67272,0.09293 14.82825,0.09293 8.15554,0 14.82825,-0.01555 14.82825,-0.0346 z m 26.83207,31.604068 v -1.56325 l 18.08513,-24.86145 18.08513,-24.86146 -16.37418,-0.05432 -16.37418,-0.05432 -0.0284,-4.155168 -0.0284,-4.155168 h 23.68304 23.68304 v 1.403427 1.403426 l -18.08721,24.997036 c -9.94796,13.748377 -18.0872,25.020167 -18.0872,25.048437 0,0.0282 8.04147,0.0514 17.86994,0.0514 h 17.86994 v 4.18232 4.18233 h -25.14829 -25.14827 z m 132.71192,1.49082 c -0.0398,-0.0398 -0.0724,-13.82521 -0.0724,-30.63418 V 70.266833 h 4.94276 4.94275 v 6.300647 c 0,3.465357 0.0421,6.300648 0.0936,6.300648 0.0515,0 0.29207,-0.567243 0.53458,-1.260538 1.1113,-3.176943 3.0385,-6.145461 5.5214,-8.504754 2.23673,-2.125374 4.79311,-3.39636 7.80956,-3.882759 0.84733,-0.136633 1.5643,-0.162719 3.25895,-0.118577 2.1283,0.05544 3.241,0.211007 4.53538,0.634103 l 0.40737,0.133158 v 5.130521 5.130519 l -1.16779,-0.584564 c -2.06284,-1.032603 -4.09825,-1.441237 -6.54507,-1.314007 -1.59242,0.08281 -2.63764,0.287286 -3.91075,0.765082 -2.61942,0.983072 -4.74416,2.718269 -6.22881,5.086858 -2.14928,3.428897 -3.68216,7.836401 -4.13427,11.887312 -0.0811,0.726967 -0.12898,6.647568 -0.14804,18.319408 l -0.0281,17.24531 h -4.86934 c -2.67814,0 -4.90193,-0.0326 -4.94175,-0.0724 z M -4.038645e-6,131.24815 c 0,-0.0387 10.884086038645,-18.9326 24.186857038645,-41.986497 L 48.373706,47.345476 76.560687,23.690904 C 92.063527,10.680893 104.78942,0.02043153 104.84044,4.5501493e-4 104.89146,-0.01844884 104.68752,0.49483284 104.38724,1.1416226 104.08697,1.7884124 90.313776,31.33046 73.78015,66.790614 l -30.06113,64.473006 -21.859512,0.0274 C 9.8367792,131.30612 -4.038645e-6,131.28679 -4.038645e-6,131.24814 Z"
       fill="#0089d6"
       fill-rule="nonzero"
       id="path1" />
  </g>
  <metadata
     id="metadata1">
    <rdf:RDF>
      <cc:Work
         rdf:about="">
        <dc:title>path21</dc:title>
      </cc:Work>
    </rdf:RDF>
  </metadata>
</svg>
